<svg width="300" height="300" viewBox="0 0 300 300" fill="none" xmlns="http://www.w3.org/2000/svg">
<ellipse cx="96" cy="241.5" rx="18" ry="17.5" stroke="white" stroke-width="6"/>
<path d="M155 40H192.87L222 259H201.609H184.13L155 40Z" stroke="white" stroke-width="6"/>
<path d="M2 1H298V-1H2V1ZM299 2V298H301V2H299ZM298 299H2V301H298V299ZM1 298V2H-1V298H1ZM2 299C1.44771 299 1 298.552 1 298H-1C-1 299.657 0.343143 301 2 301V299ZM299 298C299 298.552 298.552 299 298 299V301C299.657 301 301 299.657 301 298H299ZM298 1C298.552 1 299 1.44771 299 2H301C301 0.343147 299.657 -1 298 -1V1ZM2 -1C0.343147 -1 -1 0.343143 -1 2H1C1 1.44771 1.44771 1 2 1V-1Z" fill="white" fill-opacity="0.1"/>
</svg>
