{
  "accessors": [
    {
      "bufferView": 2,
      "componentType": 5126,
      "count": 30914,
      "max": [
        0.9629212617874146,
        0.9879759550094604,
        0.9889562129974365
      ],
      "min": [
        -0.9629212617874146,
        -0.9879759550094604,
        -0.9889562129974365
      ],
      "type": "VEC3"
    },
    {
      "bufferView": 2,
      "byteOffset": 370968,
      "componentType": 5126,
      "count": 30914,
      "max": [
        0.9998877644538879,
        1.0,
        1.0
      ],
      "min": [
        -0.9998877644538879,
        -1.0,
        -1.0
      ],
      "type": "VEC3"
    },
    {
      "bufferView": 1,
      "componentType": 5126,
      "count": 30914,
      "max": [
        1.0,
        0.47238200902938843
      ],
      "min": [
        0.0,
        0.0
      ],
      "type": "VEC2"
    },
    {
      "bufferView": 0,
      "componentType": 5125,
      "count": 184320,
      "type": "SCALAR"
    },
    {
      "bufferView": 3,
      "componentType": 5126,
      "count": 41,
      "max": [
        0.800000011920929
      ],
      "min": [
        0.0
      ],
      "type": "SCALAR"
    },
    {
      "bufferView": 4,
      "componentType": 5126,
      "count": 41,
      "max": [
        613.6552124023438,
        412.296875,
        577.359130859375
      ],
      "min": [
        426.9087219238281,
        284.67535400390625,
        401.32861328125
      ],
      "type": "VEC3"
    }
  ],
  "animations": [
    {
      "channels": [
        {
          "sampler": 0,
          "target": {
            "node": 7,
            "path": "translation"
          }
        }
      ],
      "name": "Camera|CameraAction",
      "samplers": [
        {
          "input": 4,
          "interpolation": "LINEAR",
          "output": 5
        }
      ]
    }
  ],
  "asset": {
    "extras": {
      "author": "U.A.C.WAD (https://sketchfab.com/hilalarican23)",
      "license": "CC-BY-4.0 (http://creativecommons.org/licenses/by/4.0/)",
      "source": "https://sketchfab.com/3d-models/delikli-bul-29f6fb44a71046c6bcad3be8d915dc8b",
      "title": "Delikli bul"
    },
    "generator": "Sketchfab-14.63.0",
    "version": "2.0"
  },
  "bufferViews": [
    {
      "buffer": 0,
      "byteLength": 737280,
      "name": "floatBufferViews",
      "target": 34963
    },
    {
      "buffer": 0,
      "byteLength": 247312,
      "byteOffset": 737280,
      "byteStride": 8,
      "name": "floatBufferViews",
      "target": 34962
    },
    {
      "buffer": 0,
      "byteLength": 741936,
      "byteOffset": 984592,
      "byteStride": 12,
      "name": "floatBufferViews",
      "target": 34962
    },
    {
      "buffer": 0,
      "byteLength": 164,
      "byteOffset": 1726528,
      "name": "floatBufferViews"
    },
    {
      "buffer": 0,
      "byteLength": 492,
      "byteOffset": 1726692,
      "byteStride": 12,
      "name": "floatBufferViews"
    }
  ],
  "buffers": [
    {
      "byteLength": 1727184,
      "uri": "scene.bin"
    }
  ],
  "extensionsUsed": [
    "KHR_materials_clearcoat"
  ],
  "materials": [
    {
      "doubleSided": true,
      "extensions": {
        "KHR_materials_clearcoat": {
          "clearcoatFactor": 1.0,
          "clearcoatRoughnessFactor": 0.6750496763418707
        }
      },
      "name": "Material",
      "pbrMetallicRoughness": {
        "baseColorFactor": [
          0.230292,
          0.2707750000000002,
          0.7999999999999999,
          1.0
        ],
        "metallicFactor": 0.0,
        "roughnessFactor": 0.5565700771659494
      }
    }
  ],
  "meshes": [
    {
      "name": "Icosphere_Material_0",
      "primitives": [
        {
          "attributes": {
            "NORMAL": 1,
            "POSITION": 0,
            "TEXCOORD_0": 2
          },
          "indices": 3,
          "material": 0,
          "mode": 4
        }
      ]
    }
  ],
  "nodes": [
    {
      "children": [
        1
      ],
      "matrix": [
        1.0,
        0.0,
        0.0,
        0.0,
        0.0,
        2.220446049250313e-16,
        -1.0,
        0.0,
        0.0,
        1.0,
        2.220446049250313e-16,
        0.0,
        0.0,
        0.0,
        0.0,
        1.0
      ],
      "name": "Sketchfab_model"
    },
    {
      "children": [
        2
      ],
      "matrix": [
        0.009999999776482582,
        0.0,
        0.0,
        0.0,
        0.0,
        0.0,
        0.009999999776482582,
        0.0,
        0.0,
        -0.009999999776482582,
        0.0,
        0.0,
        0.0,
        0.0,
        0.0,
        1.0
      ],
      "name": "0d14c17ff9a4438d9ee0cda562b56778.fbx"
    },
    {
      "children": [
        3
      ],
      "name": "Object_2"
    },
    {
      "children": [
        4,
        7,
        9
      ],
      "name": "RootNode"
    },
    {
      "children": [
        5
      ],
      "name": "Light",
      "rotation": [
        0.16907575726509094,
        0.7558803558349609,
        -0.27217137813568115,
        0.5709474682807922
      ],
      "scale": [
        100.00000762939453,
        100.0,
        100.0
      ],
      "translation": [
        85.55741119384766,
        289.4143371582031,
        316.03900146484375
      ]
    },
    {
      "children": [
        6
      ],
      "matrix": [
        1.0,
        0.0,
        0.0,
        0.0,
        0.0,
        2.220446049250313e-16,
        1.0,
        0.0,
        0.0,
        -1.0,
        2.220446049250313e-16,
        0.0,
        0.0,
        0.0,
        0.0,
        1.0
      ],
      "name": "Object_5"
    },
    {
      "name": "Object_6"
    },
    {
      "children": [
        8
      ],
      "name": "Camera",
      "rotation": [
        -0.21255731582641602,
        0.9047969579696655,
        -0.08438930660486221,
        0.35922181606292725
      ],
      "scale": [
        100.0,
        100.00000762939453,
        99.99999237060547
      ],
      "translation": [
        602.3103637695313,
        404.54388427734375,
        566.6652221679688
      ]
    },
    {
      "name": "Object_8"
    },
    {
      "children": [
        10
      ],
      "name": "Icosphere",
      "rotation": [
        -0.7071068286895752,
        0.0,
        0.0,
        0.7071067094802856
      ],
      "scale": [
        100.0,
        100.0,
        100.0
      ]
    },
    {
      "mesh": 0,
      "name": "Icosphere_Material_0"
    }
  ],
  "scene": 0,
  "scenes": [
    {
      "name": "Sketchfab_Scene",
      "nodes": [
        0
      ]
    }
  ]
}
